/* XPM */
static char *kactus_[] = {
/* columns rows colors chars-per-pixel */
"32 32 235 2",
"   c #080B00",
".  c #121401",
"X  c #191D00",
"o  c #1A1F09",
"O  c #1D2201",
"+  c #1F220A",
"@  c #212602",
"#  c #292F04",
"$  c #262D0B",
"%  c #282E0C",
"&  c #2B3204",
"*  c #2F3805",
"=  c #2B330D",
"-  c #323B06",
";  c #343D0B",
":  c #2C3410",
">  c #303516",
",  c #343C12",
"<  c #383F11",
"1  c #30351A",
"2  c #374007",
"3  c #374108",
"4  c #3A440C",
"5  c #3F490B",
"6  c #374013",
"7  c #3B4514",
"8  c #3E4915",
"9  c #3D451C",
"0  c #3A4024",
"q  c #3B4233",
"w  c #424E0C",
"e  c #4E5A00",
"r  c #46530D",
"t  c #49550D",
"y  c #4E5B0D",
"u  c #515B00",
"i  c #505E0D",
"p  c #424C15",
"a  c #444F18",
"s  c #455115",
"d  c #495511",
"f  c #4E5B13",
"g  c #465218",
"h  c #495519",
"j  c #4D5A1A",
"k  c #515F14",
"l  c #515E1B",
"z  c #556314",
"x  c #586714",
"c  c #5C6C15",
"v  c #55631C",
"b  c #58671E",
"n  c #5B6A1D",
"m  c #606F17",
"M  c #414922",
"N  c #444C2A",
"B  c #4C5722",
"V  c #4C553A",
"C  c #545F37",
"Z  c #546025",
"A  c #596624",
"S  c #5D6C21",
"D  c #556135",
"F  c #5B6730",
"G  c #5D6932",
"H  c #5B673A",
"J  c #627221",
"K  c #6D7C2C",
"L  c #647135",
"P  c #687630",
"I  c #6A7A31",
"U  c #6B7A3F",
"Y  c #4C5648",
"T  c #535D41",
"R  c #545D4F",
"E  c #4E5751",
"W  c #555F57",
"Q  c #535F5D",
"!  c #556042",
"~  c #616C4B",
"^  c #687644",
"/  c #6C7A47",
"(  c #65734C",
")  c #6D7B4D",
"_  c #626F51",
"`  c #6D7C51",
"'  c #6F7D5A",
"]  c #6B7862",
"[  c #69776F",
"{  c #6C796A",
"}  c #70803F",
"|  c #728247",
" . c #72814E",
".. c #778653",
"X. c #7D8C52",
"o. c #738259",
"O. c #77895C",
"+. c #738664",
"@. c #7F8D65",
"#. c #74816E",
"$. c #7B8A6F",
"%. c #7F9564",
"&. c #769068",
"*. c #7E8E74",
"=. c #778378",
"-. c #788778",
";. c #7F8E7B",
":. c #859765",
">. c #83936D",
",. c #889A6A",
"<. c #808D7B",
"1. c #859575",
"2. c #8B9D75",
"3. c #88967F",
"4. c #91A275",
"5. c #92A57F",
"6. c #6D828A",
"7. c #788985",
"8. c #7E928E",
"9. c #788B91",
"0. c #4BADF7",
"q. c #46ABFA",
"w. c #4BAEFA",
"e. c #52AFF7",
"r. c #50AFF8",
"t. c #4DB0FD",
"y. c #56B2F7",
"u. c #59B3F7",
"i. c #54B3FB",
"p. c #5BB6FA",
"a. c #5DB8FE",
"s. c #63B8F7",
"d. c #61B7F9",
"f. c #64BAFC",
"g. c #6BBDFB",
"h. c #72BFF7",
"j. c #71BFF9",
"k. c #6DC0FE",
"l. c #76C1F7",
"z. c #78C1F7",
"x. c #75C2FB",
"c. c #7BC5FB",
"v. c #7EC9FF",
"b. c #8B9B85",
"n. c #88978E",
"m. c #819B8A",
"M. c #839593",
"N. c #839894",
"B. c #87969D",
"V. c #899D9F",
"C. c #8EA684",
"Z. c #90A280",
"A. c #99AC86",
"S. c #93A78E",
"D. c #97A98E",
"F. c #99AD93",
"G. c #99A998",
"H. c #8CAFAC",
"J. c #94A3AA",
"K. c #9EB3A2",
"L. c #92ABB3",
"P. c #9CBDBD",
"I. c #A0B1A3",
"U. c #A1B5AF",
"Y. c #A4BCB4",
"T. c #A8BBB4",
"R. c #A9BFB8",
"E. c #ABC0B5",
"W. c #BACEBB",
"Q. c #95B1C2",
"!. c #9EBCCB",
"~. c #9CBED3",
"^. c #A6BCC7",
"/. c #ABBCC5",
"(. c #A4BFCD",
"). c #96C4D5",
"_. c #AEC8CD",
"`. c #B3C7C7",
"'. c #BBCEC1",
"]. c #B4CDCE",
"[. c #B8CCCB",
"{. c #A5C2D4",
"}. c #ACCAD0",
"|. c #A4CADE",
" X c #B1CDD3",
".X c #BCCFD3",
"XX c #B2CBD9",
"oX c #91C6E6",
"OX c #97CDED",
"+X c #82C7FA",
"@X c #84CAFE",
"#X c #8BCDFD",
"$X c #92CFFC",
"%X c #8ED1FF",
"&X c #94D1FE",
"*X c #9AD4FE",
"=X c #97D8FF",
"-X c #9ED9FF",
";X c #A4CBE6",
":X c #AACFE8",
">X c #AFD4EF",
",X c #B4D3E3",
"<X c #BCD8E4",
"1X c #B2D2E9",
"2X c #B8D9ED",
"3X c #A1D0F2",
"4X c #AFD7F0",
"5X c #A0D6FD",
"6X c #ADD7F8",
"7X c #A3DAFF",
"8X c #ABDDFE",
"9X c #B7DBF5",
"0X c #BBDCF2",
"qX c #B4DFFE",
"wX c #ADE0FF",
"eX c #BFE0F6",
"rX c #B4E2FF",
"tX c #BAE3FF",
"yX c #BDE8FF",
"uX c #D1E7DF",
"iX c #CCDEE3",
"pX c #CADFEB",
"aX c #CBE4F4",
"sX c #C4E5FB",
"dX c #C9E6FD",
"fX c #C1E9FF",
"gX c #CBECFF",
"hX c #D4EDFD",
"jX c #CDF1FF",
"kX c #DFF5F7",
"lX c #D3F1FF",
"zX c #D9F5FF",
"xX c #DDF9FF",
"cX c #E2FBFF",
"vX c #ECFFFF",
/* pixels */
"@X@X@X@Xv.@Xc.c.c.v.&XyX:.c J K <X-Xv.k.g.k.k.g.g.g.f.f.f.f.f.a.",
"+Xc.c.c.c.c.c.c.z.c.$XtX:.c J c E.8X+Xg.g.g.g.x.x.k.g.f.f.p.a.p.",
"v.c.c.z.c.x.l.l.x.v.&XtX,.c J c Z.rX#Xh.g.x.x.@X#Xv.x.f.s.p.p.p.",
"v.v.+Xv.c.v.x.v.x.c.%XtX2.c J c :.tX#Xx.g.v.#X).&.oX@Xg.f.a.a.a.",
"c.l.c.l.l.x.l.l.x.x.#XrX5.x S n P ,X&Xz.h.+X7X%.u m.*Xh.s.p.p.u.",
"v.v.v.v.v.x.c.v.x.c.#XrXD.x n n n ].7Xc.c.$X4XI i +.8Xv.f.a.a.a.",
"c.l.l.x.l.x.x.l.x.h.+X8XK.z n S x U.8Xc.x.*X}.n f ` 8Xc.s.y.u.y.",
"v.c.v.@X@X%Xv.c.c.c.#XrXR.z b b z S.wX@X+X7XY.z f ` qX@Xf.a.a.a.",
"l.l.c.#X&XOX&X+Xz.z.#XtX`.v b b k >.qX#X+X8XF.y t ' qXc.s.u.u.u.",
"x.v.@X-XH.I |.*X%X#X7XaXiXA v v k  .qX$X#XrX2.y r $.rXv.f.a.a.i.",
"c.z.#XwX+.e Z.8X&X-XP.P b.L v Z k L 0X*X&XtX..k c 1.tX+Xf.p.i.u.",
"x.z.#XrX( t | sX6XrXO.i 6 h v l l A ,X5X5X0XL v c G 4X#Xf.y.a.i.",
"x.c.$XtX( r A <XtXsX/ f , 8 v j l l _.qXrX].x b j 8 !.%Xg.p.i.i.",
"x.l.#XtX~ w k T.gXdX^ f 6 6 v j l r T.dXgXD.f v h 3 L.*Xg.y.i.y.",
"x.x.%XyX~ w w S.jXhX) d 7 , l j h w G.cXhX| z h s * L.*Xg.a.i.i.",
"k.l.#XrX] 5 w >.lXlXo.d p : j h h w b.kX4.x l g 7 % L.*Xg.y.e.i.",
"k.x.#XrX-.; w ^ hXzX1.t g : j h h g D U z v j p 7 % Q.=Xk.i.i.i.",
"g.h.+XrXn.- p Z pXzXG.d j : h g g g p d h 8 8 8 , = !.%Xs.i.i.t.",
"k.k.v.8XL.; p d [.zX`.f v , p g g p p p ; T D 3 : 1 :X#Xs.i.t.i.",
"g.g.c.5X(.4 8 5 I.lXaXG j , p p p p 8 < =.pXC ; & q 6Xv.p.y.t.t.",
"g.g.l.&X1X0 8 4 1.hXgX*.w 7 8 p p 8 8 /.vX.X6 : @ W 8Xx.p.t.t.0.",
"f.g.x.#XtXT 3 4 ( gXyXXXp 8 8 p p h n A.uX;.& : X 9.7Xg.i.i.t.i.",
"f.f.g.c.rX{ * 7 B <XqXfX{ 2 8 p h l A z Z , : $ + ).#Xa.i.0.0.0.",
"k.f.g.v.wXV.& 8 5 R.tX8X1XN ; 7 8 h h h ; = % . Q 8Xx.a.i.t.i.t.",
"s.s.s.x.&X{., 6 2 *.yX*XrX^.9 8 : % 7 ; # O . q ;X@Xd.e.0.0.w.w.",
"f.f.f.k.#XqXV ; 4 C 0X7X5XgX#.- , o . Y R E 6.3X%Xg.a.i.t.t.t.t.",
"a.p.d.s.c.8X7.& 7 4 U.yX6XgX;.* 7 ,   J.xXrX=Xv.f.p.0.w.0.q.q.q.",
"s.f.f.f.j.&X|., < 4 H aXjXcXn.& , , O B.yX@Xg.a.i.i.i.w.t.t.t.w.",
"s.d.p.p.f.+XqX[ & 7 4 o.'.W.o.< , 6 # M.8Xg.y.r.0.t.0.t.q.q.q.q.",
"a.p.p.p.d.g.%X:X0 ; 8 p f z v j 7 , * N.-Xg.i.t.t.t.w.q.q.t.w.q.",
"a.a.a.a.p.f.x.-XQ.: - g h j j h 8 , # 8.-Xg.i.t.t.w.t.t.q.q.q.q.",
"p.u.u.p.p.u.f.x.-X~.Y = 8 8 8 , : , # 8.-Xg.r.0.q.q.q.q.q.q.q.q."
};
